Coordinates
version=1
nRows=14
nColumns=40
inDegrees=yes

Units are S.I. units (second, meters, Newtons, ...)
If the header above contains a line with 'inDegrees', this indicates whether rotational values are in degrees (yes) or radians (no).

endheader
time	pelvis_tilt	pelvis_list	pelvis_rotation	pelvis_tx	pelvis_ty	pelvis_tz	hip_flexion_r	hip_adduction_r	hip_rotation_r	knee_angle_r	knee_angle_r_beta	ankle_angle_r	subtalar_angle_r	mtp_angle_r	hip_flexion_l	hip_adduction_l	hip_rotation_l	knee_angle_l	knee_angle_l_beta	ankle_angle_l	subtalar_angle_l	mtp_angle_l	lumbar_extension	lumbar_bending	lumbar_rotation	arm_flex_r	arm_add_r	arm_rot_r	elbow_flex_r	pro_sup_r	wrist_flex_r	wrist_dev_r	arm_flex_l	arm_add_l	arm_rot_l	elbow_flex_l	pro_sup_l	wrist_flex_l	wrist_dev_l
      4.00000000	     13.51437677	     -7.48405365	     -6.63143712	     -0.34917605	      0.81620099	     -1.02538954	     43.46021128	      6.63969471	    -11.18573595	      6.03884255	      0.10539769	      1.90310536	      0.00000000	      0.00000000	     33.06261314	    -12.30502948	     -9.61847776	     88.84866310	      1.55070171	     30.39447586	      0.00000000	      0.00000000	    -30.54747647	     -2.44079828	     11.25442962	     89.94150483	    -15.62999457	     19.78438222	     36.33298298	     82.03775109	      0.00000000	      0.00000000	     89.96408153	    -15.12923699	     27.86403133	     48.56230100	     83.86514038	      0.00000000	      0.00000000
      4.00500000	     13.45552862	     -7.51236253	     -6.63347336	     -0.34928383	      0.81567076	     -1.02524356	     43.56505914	      6.68933758	    -11.27635928	      6.06468170	      0.10584866	      1.54902140	      0.00000000	      0.00000000	     33.19336042	    -12.34073174	     -9.56100115	     88.94302057	      1.55234856	     30.42032877	      0.00000000	      0.00000000	    -30.53472891	     -2.43218335	     11.30539075	     89.94175438	    -15.64852456	     20.00378127	     36.39113424	     79.71303350	      0.00000000	      0.00000000	     89.96412891	    -15.09211189	     28.08530504	     48.70041511	     81.24566467	      0.00000000	      0.00000000
      4.01000000	     13.43701160	     -7.47407766	     -6.61810015	     -0.34925930	      0.81520362	     -1.02522181	     43.62270440	      6.68247102	    -11.27699389	      6.08831005	      0.10626106	      1.65534769	      0.00000000	      0.00000000	     33.26895115	    -12.27529176	     -9.53029155	     89.01988731	      1.55369013	     30.46151552	      0.00000000	      0.00000000	    -30.54790544	     -2.48785461	     11.32211184	     89.94174560	    -15.71343004	     19.69481664	     36.40892178	     81.83272602	      0.00000000	      0.00000000	     89.96421166	    -14.98064891	     27.73720129	     48.67251141	     83.85460404	      0.00000000	      0.00000000
      4.01500000	     13.36635536	     -7.47111251	     -6.65706693	     -0.34931140	      0.81473999	     -1.02512908	     43.75508902	      6.72600588	    -11.34255077	      6.15763681	      0.10747104	      1.35793638	      0.00000000	      0.00000000	     33.39060081	    -12.27758928	     -9.51052093	     89.09450286	      1.55499242	     30.47797743	      0.00000000	      0.00000000	    -30.51528007	     -2.52818775	     11.40042813	     89.94194996	    -15.79315066	     19.67708255	     36.45540570	     81.74178833	      0.00000000	      0.00000000	     89.96417613	    -14.86806595	     27.63886732	     48.69510668	     83.91437151	      0.00000000	      0.00000000
      4.02000000	     13.39010557	     -7.39669570	     -6.66168341	     -0.34921194	      0.81427777	     -1.02507000	     43.75616794	      6.71233853	    -11.32124824	      6.16274559	      0.10756020	      1.63040998	      0.00000000	      0.00000000	     33.39950199	    -12.18155396	     -9.52713589	     89.16599158	      1.55624013	     30.52923354	      0.00000000	      0.00000000	    -30.56547378	     -2.62422852	     11.40128925	     89.94192845	    -15.79528542	     19.50181549	     36.50380604	     81.95192845	      0.00000000	      0.00000000	     89.96425250	    -14.82727312	     27.60452444	     48.76657776	     83.95857139	      0.00000000	      0.00000000
      4.02500000	     13.40531062	     -7.41242264	     -6.69838616	     -0.34917442	      0.81384307	     -1.02487498	     43.78153063	      6.78556542	    -11.32139989	      6.22090671	      0.10857530	      1.59310892	      0.00000000	      0.00000000	     33.42132184	    -12.21257844	     -9.51528097	     89.25362249	      1.55776958	     30.58220427	      0.00000000	      0.00000000	    -30.60665048	     -2.64880282	     11.46955710	     89.94210464	    -15.81898377	     19.50725048	     36.52209525	     81.97765824	      0.00000000	      0.00000000	     89.96428645	    -14.78358880	     27.57408662	     48.80594148	     83.80914656	      0.00000000	      0.00000000
      4.03000000	     13.38584187	     -7.41314709	     -6.71628910	     -0.34917444	      0.81335284	     -1.02477996	     43.82262624	      6.82946090	    -11.27448025	      6.23083552	      0.10874859	      1.51102728	      0.00000000	      0.00000000	     33.48936148	    -12.19602411	     -9.47524056	     89.33547973	      1.55919826	     30.61719777	      0.00000000	      0.00000000	    -30.61538872	     -2.66874946	     11.55770042	     89.94214786	    -15.90671287	     19.51205005	     36.58755630	     81.78242227	      0.00000000	      0.00000000	     89.96431701	    -14.68102674	     27.52316690	     48.79839512	     83.90500512	      0.00000000	      0.00000000
      4.03500000	     13.40700428	     -7.40503052	     -6.67901158	     -0.34903123	      0.81288712	     -1.02475743	     43.81597922	      6.84633108	    -11.40284992	      6.23760072	      0.10886667	      1.82944452	      0.00000000	      0.00000000	     33.51830318	    -12.14315069	     -9.41632127	     89.41310530	      1.56055308	     30.67744995	      0.00000000	      0.00000000	    -30.65619813	     -2.67913948	     11.56794927	     89.94223005	    -15.91397690	     19.36713168	     36.58229399	     82.07318261	      0.00000000	      0.00000000	     89.96434983	    -14.64282302	     27.53479700	     48.86795355	     83.79893838	      0.00000000	      0.00000000
      4.04000000	     13.34332596	     -7.45970865	     -6.72087605	     -0.34917548	      0.81240158	     -1.02458300	     43.91463749	      6.94552495	    -11.38651001	      6.26845905	      0.10940525	      1.33784347	      0.00000000	      0.00000000	     33.64433721	    -12.20138819	     -9.36201951	     89.51397588	      1.56231361	     30.77536409	      0.00000000	      0.00000000	    -30.64158462	     -2.65567232	     11.64188765	     89.94260084	    -15.93159182	     20.27855726	     36.74486215	     74.52883303	      0.00000000	      0.00000000	     89.96430033	    -14.64948278	     28.32337906	     49.12631083	     75.83959639	      0.00000000	      0.00000000
      4.04500000	     13.31574711	     -7.44944619	     -6.79564826	     -0.34912972	      0.81203450	     -1.02436460	     43.99147865	      7.02168432	    -11.37179582	      6.37653592	      0.11129155	      1.28481029	      0.00000000	      0.00000000	     33.69923980	    -12.20990965	     -9.38626731	     89.59425625	      1.56371476	     30.80690292	      0.00000000	      0.00000000	    -30.63997519	     -2.71798141	     11.74342289	     89.94233713	    -15.95302663	     19.28293793	     36.64027564	     82.03050895	      0.00000000	      0.00000000	     89.96439070	    -14.55129647	     27.47438034	     48.93218546	     83.83883718	      0.00000000	      0.00000000
      4.05000000	     13.23949322	     -7.48416930	     -6.75703944	     -0.34915702	      0.81146540	     -1.02430658	     44.09228825	      7.06963620	    -11.46611925	      6.37882257	      0.11133146	      1.30040741	      0.00000000	      0.00000000	     33.87248358	    -12.20209920	     -9.26195563	     89.72009878	      1.56591113	     30.80824679	      0.00000000	      0.00000000	    -30.59652380	     -2.66298253	     11.77209136	     89.94240357	    -15.95034849	     19.12896171	     36.69405971	     82.10039033	      0.00000000	      0.00000000	     89.96441069	    -14.51053069	     27.46072875	     48.98040806	     83.77535643	      0.00000000	      0.00000000
      4.05500000	     13.34954799	     -7.41125863	     -6.74936250	     -0.34890654	      0.81111378	     -1.02424672	     43.96750666	      7.06708242	    -11.47794399	      6.34378715	      0.11071997	      1.81192128	      0.00000000	      0.00000000	     33.76952553	    -12.08372286	     -9.26769190	     89.78575085	      1.56705697	     30.87595334	      0.00000000	      0.00000000	    -30.69963781	     -2.74593733	     11.74749606	     89.94254855	    -15.91186260	     19.12741116	     36.68660841	     81.80623752	      0.00000000	      0.00000000	     89.96444199	    -14.49924094	     27.45693030	     48.97663296	     83.87257062	      0.00000000	      0.00000000
      4.06000000	     13.32944541	     -7.46412180	     -6.75588355	     -0.34893653	      0.81075196	     -1.02411158	     44.00309760	      7.15155460	    -11.41692573	      6.39193956	      0.11156039	      1.77434696	      0.00000000	      0.00000000	     33.83517973	    -12.11355448	     -9.20312593	     89.83888192	      1.56798429	     30.90124784	      0.00000000	      0.00000000	    -30.71802574	     -2.71637369	     11.80713384	     89.94257744	    -15.93971627	     19.07602074	     36.71720298	     81.80669031	      0.00000000	      0.00000000	     89.96447637	    -14.46039851	     27.45403021	     49.00543319	     83.81747905	      0.00000000	      0.00000000
      4.06500000	     13.33043194	     -7.44074106	     -6.72155839	     -0.34880718	      0.81029778	     -1.02410811	     44.01012476	      7.15811224	    -11.43939691	      6.38479712	      0.11143573	      1.86654500	      0.00000000	      0.00000000	     33.87699354	    -12.01933313	     -9.13232022	     89.91637160	      1.56933674	     31.02284814	      0.00000000	      0.00000000	    -30.73820021	     -2.73367708	     11.79006287	     89.94258442	    -15.94980170	     19.09145239	     36.77272744	     81.44623428	      0.00000000	      0.00000000	     89.96456339	    -14.42724582	     27.43876607	     49.04160636	     83.87628977	      0.00000000	      0.00000000
